<svg width="52" height="121" viewBox="0 0 52 121" fill="none" xmlns="http://www.w3.org/2000/svg">
<g filter="url(#filter0_d_886_294)">
<rect x="2" y="1" width="48" height="48" rx="12" fill="white" shape-rendering="crispEdges"/>
<rect x="2.5" y="1.5" width="47" height="47" rx="11.5" stroke="#EEF2F6" shape-rendering="crispEdges"/>
<path fill-rule="evenodd" clip-rule="evenodd" d="M28 19V17H24V19H28ZM18 21V32H34V21H18ZM34 19C35.11 19 36 19.89 36 21V32C36 33.11 35.11 34 34 34H18C16.89 34 16 33.11 16 32L16.01 21C16.01 19.89 16.89 19 18 19H22V17C22 15.89 22.89 15 24 15H28C29.11 15 30 15.89 30 17V19H34Z" fill="#697586"/>
</g>
<rect x="25" y="53" width="2" height="64" rx="1" fill="#EAECF0"/>
<defs>
<filter id="filter0_d_886_294" x="0" y="0" width="52" height="52" filterUnits="userSpaceOnUse" color-interpolation-filters="sRGB">
<feFlood flood-opacity="0" result="BackgroundImageFix"/>
<feColorMatrix in="SourceAlpha" type="matrix" values="0 0 0 0 0 0 0 0 0 0 0 0 0 0 0 0 0 0 127 0" result="hardAlpha"/>
<feOffset dy="1"/>
<feGaussianBlur stdDeviation="1"/>
<feComposite in2="hardAlpha" operator="out"/>
<feColorMatrix type="matrix" values="0 0 0 0 0.0627451 0 0 0 0 0.0941176 0 0 0 0 0.156863 0 0 0 0.05 0"/>
<feBlend mode="normal" in2="BackgroundImageFix" result="effect1_dropShadow_886_294"/>
<feBlend mode="normal" in="SourceGraphic" in2="effect1_dropShadow_886_294" result="shape"/>
</filter>
</defs>
</svg>
