<svg width="52" height="121" viewBox="0 0 52 121" fill="none" xmlns="http://www.w3.org/2000/svg">
<g filter="url(#filter0_d_886_309)">
<rect x="2" y="1" width="48" height="48" rx="12" fill="white" shape-rendering="crispEdges"/>
<rect x="2.5" y="1.5" width="47" height="47" rx="11.5" stroke="#EEF2F6" shape-rendering="crispEdges"/>
<path d="M35 19H27.41L30.7 15.71L30 15L26 19L22 15L21.29 15.71L24.59 19H17C16.4696 19 15.9609 19.2107 15.5858 19.5858C15.2107 19.9609 15 20.4696 15 21V33C15 34.1 15.9 35 17 35H35C36.1 35 37 34.1 37 33V21C37 20.4696 36.7893 19.9609 36.4142 19.5858C36.0391 19.2107 35.5304 19 35 19ZM35 33H17V21H35V33ZM23 23V31L30 27L23 23Z" fill="#697586"/>
</g>
<defs>
<filter id="filter0_d_886_309" x="0" y="0" width="52" height="52" filterUnits="userSpaceOnUse" color-interpolation-filters="sRGB">
<feFlood flood-opacity="0" result="BackgroundImageFix"/>
<feColorMatrix in="SourceAlpha" type="matrix" values="0 0 0 0 0 0 0 0 0 0 0 0 0 0 0 0 0 0 127 0" result="hardAlpha"/>
<feOffset dy="1"/>
<feGaussianBlur stdDeviation="1"/>
<feComposite in2="hardAlpha" operator="out"/>
<feColorMatrix type="matrix" values="0 0 0 0 0.0627451 0 0 0 0 0.0941176 0 0 0 0 0.156863 0 0 0 0.05 0"/>
<feBlend mode="normal" in2="BackgroundImageFix" result="effect1_dropShadow_886_309"/>
<feBlend mode="normal" in="SourceGraphic" in2="effect1_dropShadow_886_309" result="shape"/>
</filter>
</defs>
</svg>
